#!OML:ASF E:\Steps\Project 1\Capture day 1\Session 2\Subject.ASF
:FULLY-SPECIFIED
:DEGREES
413
root 12.3305 17.1409 16.7817 -154.499 -2.13831 176.869
lowerback -29.7515 -2.2965 -7.16949
upperback -2.11772 -1.3762 -0.649525
thorax 13.3609 -1.36256 2.5682
lowerneck -3.02317 -3.10274 1.31807
upperneck -0.224691 -4.19678 -0.882873
head 0.378616 -2.11335 -0.531631
rclavicle -1.02871e-014 -2.10712e-014
rhumerus -33.6495 -14.6314 -83.6749
rradius 34.8633
rwrist -7.13976
rhand -8.68463 -431.067
rfingers 7.12502
rthumb 17.25 -259.679
lclavicle -1.02871e-014 -2.10712e-014
lhumerus -28.3499 6.39594 81.6852
lradius 17.8363
lwrist -8.01062
lhand -21.1952 -11.0996
lfingers 7.12502
lthumb 5.18584 18.817
rfemur -22.7749 3.29804 20.4999
rtibia 8.39456
rfoot -20.2439 3.65031
rtoes -19.4258
lfemur -22.2349 -7.77959 -22.943
ltibia 7.96717
lfoot -6.58364 -4.79771
ltoes -16.2876
414
root 12.3313 17.1402 16.7788 -154.487 -2.16812 176.935
lowerback -29.7843 -2.24566 -7.09184
upperback -2.15416 -1.33744 -0.691366
thorax 13.328 -1.34169 2.49528
lowerneck -2.92567 -2.99122 1.25537
upperneck -0.536725 -4.05119 -0.732966
head 0.272974 -2.042 -0.468223
rclavicle -1.63997e-015 2.18663e-014
rhumerus -33.8256 -15.1255 -83.4869
rradius 34.3854
rwrist -6.31001
rhand -7.7954 -427.77
rfingers 7.12502
rthumb 18.1057 -263.053
lclavicle -1.63997e-015 2.18663e-014
lhumerus -28.5125 6.09144 81.615
lradius 18.0762
lwrist -7.50991
lhand -21.2326 -10.8181
lfingers 7.12502
lthumb 5.14975 19.0993
rfemur -22.8581 3.32643 20.5923
rtibia 8.55743
rfoot -19.6907 3.53606
rtoes -23.7994
lfemur -22.2663 -7.83816 -22.8371
ltibia 7.9844
lfoot -6.07044 -4.66452
ltoes -7.13895
415
root 12.3314 17.1398 16.7762 -154.506 -2.20625 177.019
lowerback -29.8293 -2.18874 -6.97564
upperback -2.15137 -1.29439 -0.724826
thorax 13.3459 -1.31599 2.41219
lowerneck -2.44582 -2.86183 1.01777
upperneck -1.28698 -3.87683 -0.211892
head -0.016531 -1.95777 -0.252972
rclavicle 2.33572e-015 7.95139e-016
rhumerus -33.9753 -15.5552 -83.3033
rradius 33.9448
rwrist -5.58465
rhand -6.39179 -424.822
rfingers 7.12502
rthumb 19.4557 -266.131
lclavicle 2.33572e-015 7.95139e-016
lhumerus -28.5682 5.55061 81.6582
lradius 18.2436
lwrist -6.89102
lhand -21.2827 -10.7059
lfingers 7.12502
lthumb 5.10139 19.2126
rfemur -22.6582 3.15152 20.7198
rtibia 8.19836
rfoot -20.5911 4.03072
rtoes -21.0097
lfemur -22.2574 -7.8234 -22.7366
ltibia 8.00346
lfoot -6.94163 -4.67186
ltoes -17.8915
416
root 12.3325 17.1391 16.777 -154.475 -2.24615 177.015
lowerback -29.8547 -2.17248 -6.97702
upperback -2.18731 -1.27866 -0.732151
thorax 13.3139 -1.31033 2.41032
lowerneck -2.61242 -2.95865 1.22956
upperneck -1.22941 -4.01535 -0.449754
head 0.0180849 -2.02878 -0.363457
rclavicle -1.68967e-014 1.82882e-014
rhumerus -34.0955 -15.5655 -83.3055
rradius 33.5738
rwrist -6.14386
rhand -6.34101 -421.923
rfingers 7.12502
rthumb 19.5045 -269.035
lclavicle -1.68967e-014 1.82882e-014
lhumerus -28.5786 5.20236 81.712
lradius 18.2541
lwrist -6.61408
lhand -21.3105 -10.5655
lfingers 7.12502
lthumb 5.07452 19.3537
rfemur -22.9427 3.21912 20.7276
rtibia 8.7291
rfoot -19.5885 3.82618
rtoes -21.9977
lfemur -22.3518 -7.76228 -22.7553
ltibia 8.10522
lfoot -6.27179 -4.63395
ltoes -10.8764
417
root 12.3327 17.1387 16.7751 -154.452 -2.25439 176.964
lowerback -29.8928 -2.15546 -7.02336
upperback -2.22308 -1.2461 -0.748991
thorax 13.2858 -1.30007 2.42832
lowerneck -2.63024 -2.98982 1.25509
upperneck -1.20134 -4.05786 -0.579378
head 0.025988 -2.05025 -0.407793
rclavicle 3.67752e-015 2.46493e-014
rhumerus -34.1009 -16.1344 -83.0585
rradius 33.154
rwrist -5.31766
rhand -5.77022 -420.173
rfingers 7.12502
rthumb 20.0532 -89.1585
lclavicle 3.67752e-015 2.46493e-014
lhumerus -28.5909 5.3374 81.6072
lradius 18.122
lwrist -7.01359
lhand -21.417 -10.6644
lfingers 7.12502
lthumb 4.97169 19.2573
rfemur -22.9535 3.17187 20.6719
rtibia 8.71843
rfoot -20.8263 4.07362
rtoes -20.0393
lfemur -22.378 -7.96484 -22.7655
ltibia 8.11701
lfoot -7.03621 -4.52095
ltoes -19.1697
418
root 12.3322 17.1393 16.77 -154.443 -2.24318 176.96
lowerback -29.9906 -2.12524 -7.01037
upperback -2.2032 -1.20096 -0.759229
thorax 13.3475 -1.28097 2.42487
lowerneck -2.34339 -2.74422 0.842443
upperneck -1.5141 -3.719 -0.259465
head -0.0981334 -1.88029 -0.234102
rclavicle -3.62782e-015 3.69739e-014
rhumerus -33.6718 -17.0341 -82.9225
rradius 32.3387
rwrist -4.56615
rhand -5.26991 -417.763
rfingers 7.12502
rthumb 20.5341 -86.6967
lclavicle -3.62782e-015 3.69739e-014
lhumerus -28.5187 5.69872 81.4251
lradius 17.9557
lwrist -7.59234
lhand -21.6722 -10.8344
lfingers 7.12502
lthumb 4.72527 19.0929
rfemur -22.8713 3.02264 20.6715
rtibia 8.56165
rfoot -19.4573 4.03843
rtoes -21.7199
lfemur -22.3287 -8.1768 -22.7171
ltibia 8.01617
lfoot -6.24885 -4.3295
ltoes -8.42091
419
root 12.3333 17.1396 16.7672 -154.393 -2.23991 176.953
lowerback -30.0949 -2.11443 -7.03858
upperback -2.19677 -1.17212 -0.754161
thorax 13.3984 -1.27238 2.45356
lowerneck -3.88718 -2.73269 1.43571
upperneck 0.058077 -3.72008 -1.24484
head 0.607077 -1.88209 -0.676831
rclavicle -6.95746e-015 1.98785e-014
rhumerus -34.1444 -16.6464 -82.8002
rradius 32.3702
rwrist -5.25866
rhand -4.88614 -413.715
rfingers 7.12502
rthumb 20.9028 -82.6087
lclavicle -6.95746e-015 1.98785e-014
lhumerus -28.4378 5.91856 81.3099
lradius 17.8618
lwrist -7.80819
lhand -21.7131 -10.7325
lfingers 7.12502
lthumb 4.68584 19.1956
rfemur -22.8841 2.96639 20.6665
rtibia 8.50752
rfoot -20.5529 4.42158
rtoes -19.0535
lfemur -22.3671 -8.16516 -22.7196
ltibia 7.99433
lfoot -6.97286 -4.44502
ltoes -17.7386
